<?xml version="1.0" encoding="UTF-8"?>
<svg id="Layer_1" xmlns="http://www.w3.org/2000/svg" version="1.1" viewBox="0 0 296.51 227.58">
  <!-- Generator: Adobe Illustrator 30.2.1, SVG Export Plug-In . SVG Version: 2.1.1 Build 1)  -->
  <defs>
    <style>
      .st0 {
        fill: #231f20;
      }
    </style>
  </defs>
  <path class="st0" d="M120.86,221.57c-9.4-1.95-5.51.09-13.56-.53-5.27-.41-8.92-2.32-10.84-7.69-7.09-.96-5.61-1.49-13.77-2.63-1.93-.27-2.89-3.39-3.99-4.77-5.34-6.64-6.86-12.56-12.91-18.15-1.88-1.74-4.8-2.35-6.66-3.73-12.74-9.47-4.99-13.22-11.6-22.39-1.3-8.48.55-4.52.06-12.94-.14-2.44.07-5.32-2.52-6.49-1.28-.58-1.37-3.48-1.95-5.1-.88-2.42.11-7.7.55-10.08l.77-4.18c3.68-.85-3.05-8.56-4.45-9.99-2.78-2.84-4.33-6.56-2.45-9.99-1.05-3.6-.63-7.68,2.19-10.69,1.42-1.51-.25-4.17.2-5.84.9-3.34,1.17-7.17,2.2-10.18,1.14-3.31,1.98-6.59,3.6-9.71l5.62-10.85c.62-1.21-2.85-10.35,11.18-17.91,3.12-1.68,5.73-3.71,8.65-5.88.75-.56,2.31-1.12,3.01-1.82,2.24-2.23,5.53-2.1,8.44-2.96,10.22-3.03,14.29-9.52,28.04-8.32,1.7.15,3.83-.49,5.26-.55l8.2-.34c2.72-.11,5.32-.57,7.98-1.12l11.5-2.37c2.65-.55,6.15-.52,8.93-.67l10.77-.59,8.02-.49,6.33-.26c4.12-.17,8.77-1.62,12.87.6,2.26,1.23,4.5,2.01,6.95,2.99l4.06,1.63c2.98,1.19,5.11,3.23,7.38,5.21l12.19,10.59,4.05,3.62,1.86,1.84.13,4.84c.01.54,1.6,1.4,1.44,1.92-.92,3.16-1.61,1.74-1.15,4.6.07.44,1.12.43,1.82.46,1.94,5.01,8.64,4.37,14.33,9.87,2.4,2.31,4.55,6.86,4.98,10.11.42,3.25-.22,5.34,2.39,7.67,1.21,1.08,1.72,3.49,1.27,5.14-1.32,4.81,3.03,3.72,3.08,18.99.01,3.15,1.95,5.85,3.39,8.41,1.76,3.12,1,7.9.64,11.06l-.45,3.99c-.27,2.38-1.01,4.29-1.58,6.76l-1.21,5.2c-1.92,2.68-3.26,5.05-4.49,7.91l-2.6,6.05c-2.64,6.14-7.05,11.28-12.05,16-1.84,1.74-5.23,2.27-6.47,5.09-.51,1.16-1.23,1.81-2.22,2.68-2.51,2.22-11.23,11.71-12.95,14.58-1.2,2-2.07,3.25-3.85,4.67-4.79,3.79-5.51,6.44-10.51,6.81-1.37,1.11-2.4,4.66-4.26,5.59-6.03,3-4.79,3.37-12.13,1.74-2.03-.45-5.17-.78-6.8.37l-5.09,3.59c-5.74,4.05-8.28,4.47-14.4,8.66-2.44.22-12.46-.9-14.02-1.4-16.44-5.2-9.8,4.19-23.38,1.37ZM107.84,211.93c4.4,1.56,7.88,4.11,12.04.16.59-.56,2.71-.46,3.47-.79,2.92-1.28,5.67.71,8.3.91,2.69.21,6.15-.78,8.96-.96l6.56-.43c2.95-.2,5.54-.49,8.59.24,9.17,2.18,3.86-.88,8.16-1.07,2.21-.1,4.47-2.13,6.49-3.5l3.59-2.45c9.59-6.54,17.01,4.03,21.2-5.94.76-1.81,2.89-3.93,4.66-5.33,1.58-1.25,3.82-2.22,5.77-3.32,2.83-1.59,3.84-4.9,5.44-7.48,2.16-3.51,7.28-10.17,7.89-11.33.83-1.58,2.04-2.54,3.05-3.98l6.91-9.75c1.86-2.62,8.56-12.01,9.98-13.71,3.83-4.6,6.88-9.22,8.65-15.02,1.03-3.37,2.39-6.66,2.79-10.27.29-2.55,1.13-5.34.62-7.94l-1.78-9.01c-.59-3-.15-6.2-1.15-9.05l-1.32-3.76c-.74-2.1-.85-4.36-.28-6.63-7.92-7.2.78-12.8-8.05-17.01l-8.43-4.03-4.12-3.13c-3.36-2.55-6.16-5.11-4.88-9.74l-3-3.12c-1.48-1.54-3.54-3.29-5.23-4.87-.55-.51-3.01-4.64-5.37-7.41l-1.98-2.32c-3.08-3.62-6.55-5.61-11.31-6.08-2.13-.21-4.36-.44-6.57-.31l-7.6.43c-5.02.29-9.93-.02-14.9.85-1.78.31-3.98,2-5.38,2.07-4.41-.74-5.73-.18-10.42-.3-9.02-.23-8.51-.2-17.95-.35l-9.23-.14c-2.26-.04-4.27-.41-6.48.16-4.06,1.06-7.95,1.09-11.98,1.71-1.91.3-4.5,1.79-6.49,2.42-3.97,1.24-5.39,3.46-14.65,4.64-1.87.24-3.1.11-4.47,1.65-.6.68-2.08,1.35-2.82,1.9l-9.36,6.93c-2.38,1.76-6.8,9.48-8.43,12.73-4.81,9.61-7.13,11.16-9.18,22.08l-1.16,6.2c-2.37,12.67-2.2,4.39-1.3,15.48.81,10.05,5.12,9.41,6.13,18.11.47,4.04.97,7.85,1.07,11.91.05,2.28-1.19,5.19-1.26,7.46-.03.96,1.56,2.73,1.75,3.67.45,2.2.47,5.16.79,7.44l.49,3.51.67,7.4c.09,1.04.87,3.03,1.1,4.18,1.02,5.2.57,7.05,4.41,10.86,5.05,5.02,3.61.57,12.11,8.23,2.04,1.84,3.95,3.68,5.99,5.31,3.2,2.57,5.08,5.34,6.8,9.18,1.1,2.47,5.68,2.89,7.94,3.98,3.51,1.69,6.5,3.1,10.13,4.53,1.71.68,2.94,2.39,4.04,4.21Z"/>
  <path class="st0" d="M133.09,204.31c-2.5-.72-5.18.04-7.7-.06-19.02-.79-20.12-1.5-32.79-13.27-1.38-1.28-2.63-2.1-4.16-2.95l-6.58-3.64-4.74-2.68c-7.52-4.25-9.46-4.68-14.63-13.2-1.79-2.94-.83-6.85-1.36-10.08l-1.62-9.96-1.13-8.5c-.59-4.41.85-23.69-.73-27.64l-3.01-7.52c-2-5,1.24-14.59,1.49-16.85.8-7.26-1-19.29,2.66-23.86l8.16-10.19c1.37-1.71,11-8.22,13.67-10,1.6-1.07,3.36-1.48,5.29-2.16l13.9-4.92c2.11-.75,4.64-1.7,6.63-2.11l10.47-2.14,7.41-1.73c2.75-.64,6.12-.1,8.99-.51,1.65-.23,3.66-.71,5.3-.56,6.89.63,12.95-.38,19.73-1.36,7.72-1.12,15.45-.79,23.21-.64,1.11.02,3.19.86,4.33,1.15,3.82.98,6.7,3.77,7.9,7.57l1.92,6.11c4.86,1.84,9.18,4.16,13.3,7.14l3.85,2.78c2.84,2.05,5.5,4.83,8.16,7.25l7.49,6.81c4.5,4.09,11.43,18.57,13.12,25.04,1.38,5.31.77,12-.59,17.26-1.21,4.68-2.47,8.76-3.13,13.43-1.32,9.29-5.83,15.71-11.11,23.16-1.33,1.88-2.55,3.98-4.03,5.83-1.59,1.99-2.85,3.67-3.49,5.9l-.46-1.57c-.63,5.06-3.53,4.45-6.24,8.86l-2.52,4.09-2.95,4.55c-.49.76-1.2,2.45-1.8,3.06l-9.63,9.8c-1.8,1.83-12.78,8.04-15.86,9.32-3.85,1.59-6.84,4.08-10.46,6-5.1,2.71-11.4,3.7-17.17,3.75l-12.4.11c-.4,0-5.19-.45-6.7-.88ZM120.23,198.7c7.2-.16,13.43.37,20.2,1.05,4.28.43,8.66-.11,12.97-.06,1.78.02,4.15-.55,5.92-.86l3.61-.65c4.69-.84,5.76-2.55,9.6-5.35,2.41-1.75,5.67-2.21,8.2-3.67l7.17-4.11c6.44-3.7,14.68-12.94,18.48-19.15,4.29-7.01,4.42-5.27,9.23-11.61,2.62-3.46,4.49-7.17,7.22-10.57l2.52-3.13c2.19-2.73,3.61-5.87,5.2-8.95,2.76-5.35,3.49-11.22,4.38-17.1.39-2.62,2.52-5.35,2.65-7.98l.63-12.8c-4.44-10.42-5.25-13.71-11.67-23.5-.97-1.48-3.52-2.76-4.82-4.17-4.73-5.13-9.61-9.64-15.63-13.36l-4.49-2.78-9.07-5.16-.84-4.3c-.19-.97-.65-2.93-1.23-3.67l-3.32-4.24c-7.13-2.85-13.16-2.14-20.25-1.5-2.78.25-5.64.28-8.45.77l-3.45.59c-2.38.41-4.96.88-7.35,1.08l-7.99.66-7.52.62c-3.38.28-6.93.52-10.09,1.17l-10.46,2.15-5.12,1.05c-1.55.32-3.58.93-5.08,1.51l-9.44,3.64c-2.42.93-5.54,1.67-7.83,2.87-4.45,2.33-8.72,5.45-12.58,8.78-3.47,3-6.64,7.22-9.04,11.09-2.72,4.39-1.16,10.24-1.36,15.02l-.2,4.75c-.22,5.46-2.06,10.66-1.71,16.24.27,4.35,4.24,9.13,3.85,13.68-.27,1.53-.36,2.57-.34,4.05l.18,10.98c.05,3.16-.11,6.24.4,9.27l1.55,9.21,1.18,8.04.07,2.33.1,3.61c2.74,5.86,4,7.92,9.28,10.88l13.46,7.55c9.67,5.43,5.19,3.41,12.53,10,3.43,3.08,7.23,5.1,12.04,5.27,1.93.07,4.61.81,6.7.76Z"/>
  <path class="st0" d="M201.87,65.01c.29-2.12-4.82,1.74-7.16.17-.87-1.15-2.52-3.19-3.4-4.14-.18-.19.43-.98.6-.78l1.16,1.29c.29.33,1.61.21,1.78.61.2.47.52,1.43.79,2.2,2.04.19,4.69-.37,7.04-1.61l-2.38-.84,2.75-.85,2.95,2.95c1.18-.66,2.79-1.37,4.12-1.24,3.73.36,6.04,7.39,6.61,11.45.24,1.7,1.27,3.9,1.28,5.69l.08,11.95.86,6.62c.35,2.67.64,5.94.18,8.42l-1.68,9c-.75,4.01-.59,7.77-.2,11.73-.41,1.06-1.23,3.04-1.9,3.91l-6.52,8.46c-3.27,4.25-6.23,8.52-8.77,13.24-1.44,2.67-3.1,5.1-4.69,7.69-2.93,4.77-7.31,10.44-12.29,12.97l-4.74,2.4c-2.78,1.41-5.78,1.69-8.62,2.71-3.6,1.3-6.75,3.92-10.67,4.87-4.37,1.06-8.45,1.94-12.98,1.96l-6.95.03c-1.41,0-2.28-.19-3.51-.87-2.45-1.36-5.33-2.27-7.6-3.7-3.48-2.2-6.84-1.04-10.7-.95l-9.62.23c-3.01.07-5.28-.34-8.05-1.46-2.83-1.14-6.3-1.91-8.62-3.89-4.47-3.83-6.74-5.36-10.62-10.81-3.32-4.66-5.87-1.98-5.7-11.95.16-9.49-1.57-11.33-2.2-22.06l-.53-8.9c-.23-3.88-.57-7.24-1.27-11.12l-2.67-14.71c-.54-2.99-.63-5.69-.74-8.77-.05-1.35-.72-3.23-.55-4.84,1.6-15.09,9.83-19.16,21.62-26.55,2.47-1.55,5.16-2.82,7.79-4.23,6.98-3.74,10.66-5.28,18.5-7.19,2.36-.58,4.77-1.37,7.16-1.83,16.13-3.1,15.56-1.72,30.72-1.9l9.51-.11,10.8,1.87c2.17.37,4.32-.35,6.59-.54l-.94,1.72c2.94.95,4.75,3.68,3.81,6.8l1.81,3.59,2.89.08,2.03,3.26c.43-.29-.45.31-.65.45s-.67-.45-.91-.64c-1.95-.15-3.9-.54-4.96-1.53-1.81-1.69-2.44-4.27-2.15-6.39.28-2.04-1.9-3.83-3.5-3.17l-3.18,1.31c-2.58-.99-5.29-1.48-7.82-2.07-1.94-.45-3.68-.96-5.69-.97l-16.14-.07c-9.73-.04-10.76-.24-20.58,1.54l-8.28,1.5c-10.81,1.95-21.65,9.07-30.89,15.04-2.19,1.41-4.07,2.56-5.95,4.39-1.93,1.87-4.07,3.77-5.2,5.97-2.74,5.33-2.74,10.12-2.07,15.74.34,2.88.57,5.86,1.11,8.79l1.06,5.84,2.32,12.02.74,13.19c.16,2.86,0,5.93.59,8.9,1.04,5.28,1.86,10.14,1.55,15.64-.09,1.62.24,4.58,1.26,5.54,6.4,6.03,4.02,5.68,12.02,12.84,1.27,1.14,2.44,2.66,4.26,3.22,8.24,2.53,10.1,3.19,19.98,2.33l5.89-.51c7.07-.61,7.84,2.9,15.91,5.69,2.61.63,5.82.69,8.64.55l7.67-.39c5.65-.29,9.99-3.42,14.87-5.83,4.97-2.46,10.79-3.17,15.32-6.96,2.83-2.37,5.39-5.75,7.36-8.94l4.11-6.65c2.84-4.59,5.03-8.99,8.29-13.2l9.26-11.92c.73-9.01-.06-12.53,2.88-21.25l.02-5.51c0-1.82-.36-4.02-.65-5.86-1.71-10.83.86-9.2-2.08-20.22-1.49-5.58.39-4.41-3.94-9.42l-7.78-.03.13-.97Z"/>
  <path class="st0" d="M137.98,166.88c-8.15-2.37-19.56-2.2-24.64-4.21-3.36-1.33-6.72-2.5-9.85-4.11-3.82-1.96-7.26-3.47-11.42-4.92-4.11-1.43-6.88-5.86-7.95-9.81-2.37-8.77-4.57-13.91-6.59-22.62-.57-2.45-.19-6.19.22-8.58l.97-5.58c.57-3.3,3.1-6.61,3.15-9.93.03-2.05-.04-3.97.12-6.01.45-5.66-1.36-13.99,2.19-19.64,3.53-5.62,7.96-9.33,13.3-12.67,3.33-2.08,6.37-4.58,9.98-6.1,5.67-2.38,6.58-3.88,13.08-5.02l3.81-.67,1.16.55c.31.15,1.08-.58,1.55-.58l14.24.14c9.69.09,20.81-.27,28.36,6.16l8.9,7.58,6.78,4.63c1.61,1.1,3.45,3.04,5.07,3.84,2.6,1.28,3.72,2.25,5.07,4.96,1.18,1.36,3.36,3.21,4.79,4.52,2.48,2.28,2.89,4.97,4.18,7.69,4.39,9.31,4.66,18.17,1.99,28.15-1.53,5.73-1.4,12.5-3.66,17.57-3.31,7.44-8.1,13.07-13.55,18.78-3.94,4.12-8.21,7.66-13.24,10.68-4.74,2.84-8.97,7.49-14.95,8.07-2.72.26-6.07-.22-9.05-.11-2.54.1-4.89-.1-7.24-.78l-6.77-1.97ZM116.83,64.14c4.78-2.29-1.28-2.74,1.78-6.68l2.69-3.47c.48-.63.91-1.84,1.26-3.14l-9.1,3.36c-4.93,1.82-9.06,4.21-13.44,7.11l-3.83,2.54c-5.27,3.48-10.52,9.7-10.63,16.83l-.28,17.5c-.04,2.71-5.88,12.82-3.86,22.33.89,4.2,2.02,8.19,3.27,12.18l2.84,9.11c2.2,7.06-.07,4.8,6.75,9.66,3.57,1.05,6.82,2.66,10.14,4.46,3.25,1.76,6.99,2.75,10.52,4.01,3.61,1.29,7.48.71,11.23,1.3l7.37,1.15c7.99,1.25,16.98,6.07,28.17,3.44,4.74-1.12,8.17-5.21,12.35-7.3,3.98-1.99,6.99-4.29,10.19-7.54l3.75-3.8c4.51-4.56,7.11-7.52,10.05-13.25,1.77-3.44,3.23-6.9,3.62-10.81.68-6.75,3.31-13.05,3.86-16.8,1.97-13.45-.5-11.03-2.83-18.9-1.11-3.74-2.25-6.88-5.58-9.22-1.8-1.26-3.08-4.01-4.67-5.28l-6.08-4.86c-2.49-1.99-5-4.04-7.79-5.66-2.36-1.37-6.05-1.73-7.71-3.88-1.98-2.57-3.89-3.83-6.9-4.71-4.71-1.39-9.27-3.17-14.32-3.21l-20.27-.18c-1.06,0-3,.49-3.88.78-1.22,2.31-2.5,4.19-4.15,6.26l-.06,4.69,3.89-.42,5.5-.84c7.38-1.12,8.86-.41,15.42-1.39,5.61-.83,9.13-.62,14.62.36,4.75.85,8.98,1.89,12.6,5.39,6.11,5.9,9.17,13.96,10.98,22.11.72,3.22,3.06,4.78,5.63,6.38,3.78,2.63,5.91,9.54,6.4,13.93.1.88-.26,2.76-.22,3.66.2,4.57-1.72,8.21-3.87,12.08l-6.17,11.07c.71.65,1.01,3.33.09,3.22l-3.98-.49c-2.21,1.62-4.58,3.15-6.61,4.89-7.23,6.22-4.54,1.3-12.31,8.76-5.03,4.83-11.63,2.3-10.88,4.17l.43,1.07c0,.33-.17,1.13-.33,1.48-.16.35-1.47.39-1.57.02l-.43-1.6c-1.24-.45-2.83-.07-4.57.46-.99.3-2.89.25-4.13.4-4.14.49-7.78-.25-11.78-1.03l-6.43-1.25c-3.63-.71-6.06-1.18-9-4.77-.31-.37-1.82-.81-1.79-1.25l.08-1.5-1.36.93c-.31.21-1.42-.48-1.83-.43-2.16.26-5.16-.31-6.6-2.62l-3.78-1.51c-1.74-2.46-3.07-4.85-4.39-7.56-2.84-5.83-.37-16.23-1.74-25.13-.6-3.87-3.32-7.72-1.35-11.78l2.07-4.25c3.61-7.41-2.92-12.94,8.14-21.4,6.32-4.83,7.22-5.53,14.83-9.18ZM117.47,76.57c-.62-3.64-.47-6.5.23-10.1-6.63,3.26-18.83,9.81-19.33,17.83-.64,10.3,1.63,6.12-3.84,17.23.75,7.17,1.94,4.84,2.41,12.24.42,6.55-.85,8.53,0,16.32.19,1.75,3,8.36,4.87,9.68,2.26,1.59,4.42,3.17,6.75,4.45,1.48.81,4.42-.19,5.72,1.45,1.66,2.1,3.58,4.04,5.91,5.4,10.13-1.57,5.39.83,16.05,2.38,1.62.24,3.59.97,5.28.43,1.47-.47,2.86-.95,4.16-1.06,2.75-.23,5.26-.93,7.77-1.43,4.33-.85,7.48-1.93,10.29-5.59,1.82-2.37,5.73-3.2,8.14-5.23l7.71-6.5c.49-.41.52-2.64,1.12-2.54l2.49.41,5.52-10.47c4.11-7.81,5.18-17.11-1.16-23.99-1.32-1.43-4.27-2.44-5.23-4.21-3.72-6.87-3.65-12.52-5.99-16.12l-2.75-4.24c-3.01-4.64-7.1-7.49-12.63-8.45-13.43-2.33-8.35-.42-17.07-.08-3.65.14-22.62,1.23-23.22,3.45-1,3.67-1.84,4.75-1.8,7.59,12.47-7.11,4.51-4.8,17.04-4.99,1.35-.02,3.08-1.04,4.29-1.16,4.45-.44,12.42-.6,16.37,1.55,3.98,2.16,7.07,7.51,8.59,11.97.61,1.8,2.36,2.92,3.27,4.36,4.28,6.73,5.32,9.81,7.91,16.94,1.82,5.02,1.37,8.07.73,13.55-1.13,9.69-5.24,15.39-13.73,20.43l-4.61,2.73c-4.05,2.4-8.35,3.33-12.92,4.94-1.43.5-4.5.3-6.04.11l-4.96-.63c-1.09-.14-3.2-.85-4.31-1.34-10.6-4.67-8.35-.92-16.97-5.02-2.28-2.46-3.48-5.84-5.55-8.35-4.88-5.95-1.21-7.43-1.8-12.48l-.64-5.42-.79-7.9c-.27-2.71-.4-5.36-1.91-7.72l.02-4.06c0-1.23.83-3.67,1.33-4.89,3.83-4.55,8.35-8.29,13.28-11.45ZM130.83,139.83c2.14,1.13,4.24,1.58,6.56,1.99,5.7,1.02,10.3-.14,15.35-2.56,5.91-2.84,13.73-6.07,17.32-12.19,3.93-6.68,3.17-8.5,3.91-15.97.5-5.1-3.35-12.68-5.57-17.33-1.44-3.02-3.1-5.29-5.09-7.86-3.24-4.2-3.2-14.69-17.56-13.56-.79.29-2.39,1.19-3.27,1.29l-5.77.63c-.71-.69-1.98-1.42-2.82-1.39l-5.38.19-8.95,5.12c-.02.69.17,1.82-.17,1.67-.27-.12-1.71-.41-1.94-.23l-6.44,4.97c-9.06,6.99-4.15,10.76-3.16,21.34.18,1.9.22,3.85.52,5.6.53,3.08,1.22,6.04.9,9.29-.18,1.83-.86,4.23.18,5.86l5.93,9.27c5,2.17,9.56.77,15.44,3.88Z"/>
  <path class="st0" d="M150.5,132.22l-3.82-.38c-2.95-.29-5.49-.39-8.36.45-4.37,1.27-9.3,1.5-13.22-.56-2.92-1.53-4.81-4.04-4.76-7.2.1-6.1-4.57-1.28-4.98-11.82l-.44-11.55c-.4-10.41-2.1-11.69,13.95-20.72,1.46-.82,3.64-.14,5.15.03l7.44.82c10.57,1.17,7.24,1.56,11.42,4.65,7.2,5.33,12.72,8.49,13.64,18.04,3.78,6.88-3.88,19.28-8.64,23.75-2.06,1.94-4.96,3.08-7.38,4.5ZM152.28,127.65c6.03-2.92,8.69-8.71,11.1-14.36,1.3-3.04,1.47-5.07.59-8.26-3.63-13.26-6.03-9.73-15.41-18.92-2.99-1.96-6.66-.8-9.72-1.26l-6.13-.93c-1.34-.2-2.98-1.03-4.26-.24-4.78,2.94-11.59,6.25-11.13,11.78l.47,5.69.11,7.23c-.04-2.35.91,11.69,1.37,8.98,6.81,3.07,1.1,10.65,9.11,12.15,2.52.47,5.22.33,7.81-.32,11.18-2.82,9.35,1.73,16.09-1.54Z"/>
  <path class="st0" d="M147.46,119.8c-2.09,1.14-4.25,2.54-6.65,1.91l-8.09-2.11c-2.86-.74-5.89-2.77-7.12-5.71-2.84-6.81-2.37-11.2-.02-17.92.62-1.79,1-3.02,1.03-5.03l5.8-3.58c3.24-.62,7.67-.72,11.35-.1,3.28.55,4.91,4.69,7.32,6.28,2.67,1.76,3.05,3.46,3.35,6.37.26,2.58.89,12.7.2,14.22-1.42,3.1-4.3,4.09-7.17,5.66ZM146.75,116.78l5.15-3.14c.16-6.82.27-8.58-.6-15.41-.11-.86-1.89-2.05-2.51-2.67l-5.59-5.62-7.53-.04c-6.53-.03-6.97,3.61-8.71,10.31-.94,3.63-.44,7.03.56,10.54.92,3.22,2.38,4.9,5.75,5.84l4.5,1.25c3.61,1.01,5.55,1.03,8.97-1.06Z"/>
  <path class="st0" d="M134.07,106.84c-.22-4.73,1.84-8.03,5.87-10.09-3.2-4.76-2.62,4.54-9.19,4.31l2.16-3.61c1.43-2.4,3.64-5.13,6.64-4.73,1.74.23,2.52,1.7,3.6,3.12,1.61,2.12,3.93,4.23,4.83,6.71,1.24,3.41-.73,6.29-3.19,8.52-1.54,1.4-4.77,1.48-6.81.72-1.71-.64-3.83-3.02-3.92-4.93ZM141.05,109.38c2.86-.16,5.18-3.86,3.94-6.29-1.12-2.19-2.85-3.75-4.64-5.41-1.64,1.86-3.04,3.65-3.48,5.86-.54,2.75.81,6.03,4.18,5.84Z"/>
</svg>